<svg xmlns="http://www.w3.org/2000/svg" width="1280" height="720" viewBox="0 0 1280 720" fill="none">
  <defs>
    <linearGradient id="bg" x1="0" y1="0" x2="1" y2="1">
      <stop offset="0" stop-color="#0b0c0f"/>
      <stop offset="1" stop-color="#12141a"/>
    </linearGradient>
    <linearGradient id="a" x1="0" y1="0" x2="1" y2="1">
      <stop offset="0" stop-color="#6AA6FF"/>
      <stop offset="1" stop-color="#7DF6D9"/>
    </linearGradient>
    <filter id="blur" x="-20%" y="-20%" width="140%" height="140%">
      <feGaussianBlur stdDeviation="40"/>
    </filter>
  </defs>
  <rect width="1280" height="720" fill="url(#bg)"/>
  <g filter="url(#blur)" opacity="0.6">
    <circle cx="340" cy="220" r="160" fill="#6AA6FF"/>
    <circle cx="860" cy="460" r="200" fill="#7DF6D9"/>
  </g>
  <g opacity="0.7">
    <rect x="240" y="180" width="800" height="360" rx="20" fill="#0f1117" stroke="#1e232b"/>
    <rect x="280" y="230" width="360" height="18" rx="9" fill="#1e232b"/>
    <rect x="280" y="260" width="520" height="12" rx="6" fill="#1e232b"/>
    <rect x="280" y="282" width="480" height="12" rx="6" fill="#1e232b"/>
    <rect x="280" y="304" width="420" height="12" rx="6" fill="#1e232b"/>
    <rect x="280" y="340" width="180" height="40" rx="10" fill="url(#a)"/>
    <rect x="470" y="340" width="150" height="40" rx="10" fill="#12141a" stroke="#1e232b"/>
    <rect x="280" y="400" width="720" height="90" rx="12" fill="#0b0c0f" stroke="#1e232b"/>
  </g>
  <g>
    <path d="M320 520h640" stroke="#1e232b"/>
    <path d="M320 540h640" stroke="#1e232b"/>
    <path d="M320 560h640" stroke="#1e232b"/>
  </g>
  <text x="50%" y="88%" text-anchor="middle" fill="#a6b0bb" font-family="system-ui, -apple-system, Segoe UI, Roboto" font-size="16">Illustration placeholder</text>
</svg>

