<svg xmlns="http://www.w3.org/2000/svg" xmlns:xlink="http://www.w3.org/1999/xlink" width="1000" zoomAndPan="magnify" viewBox="0 0 750 149.999998" height="200" preserveAspectRatio="xMidYMid meet" version="1.0"><defs><g/><clipPath id="d879df7ad1"><path d="M 372 0 L 398 0 L 398 128 L 372 128 Z M 372 0 " clip-rule="nonzero"/></clipPath><clipPath id="e964cdcb9d"><path d="M 598 0 L 624 0 L 624 128 L 598 128 Z M 598 0 " clip-rule="nonzero"/></clipPath><clipPath id="ab7a0b073a"><rect x="0" width="750" y="0" height="150"/></clipPath></defs><g transform="matrix(1, 0, 0, 1, 0, -0.000000000000007527)"><g clip-path="url(#ab7a0b073a)"><g fill="#ffffff" fill-opacity="1"><g transform="translate(0.00000625, 127.079552)"><g><path d="M 59.578125 -76.035156 L 59.578125 -99.574219 L 34.582031 -99.574219 L 34.582031 -115.199219 L 9.789062 -115.199219 L 9.789062 0 L 34.582031 0 L 34.582031 -76.035156 Z M 59.578125 -76.035156 "/></g></g></g><g fill="#ffffff" fill-opacity="1"><g transform="translate(63.745866, 127.079552)"><g><path d="M 33.539062 -99.574219 L 8.75 -99.574219 L 8.75 -18.75 C 8.75 -1.25 20.832031 0 33.746094 0 L 108.324219 0 L 108.324219 -99.574219 L 83.535156 -99.574219 L 83.535156 -23.539062 L 42.707031 -23.539062 C 37.082031 -23.539062 33.539062 -23.75 33.539062 -29.582031 Z M 33.539062 -99.574219 "/></g></g></g><g fill="#ffffff" fill-opacity="1"><g transform="translate(181.863117, 127.079552)"><g><path d="M 59.578125 -76.035156 L 59.578125 -99.574219 L 34.582031 -99.574219 L 34.582031 -115.199219 L 9.789062 -115.199219 L 9.789062 0 L 34.582031 0 L 34.582031 -76.035156 Z M 59.578125 -76.035156 "/></g></g></g><g fill="#ffffff" fill-opacity="1"><g transform="translate(245.608977, 127.079552)"><g><path d="M 8.75 -18.75 C 8.75 -1.25 20.832031 0 33.746094 0 L 108.324219 0 L 108.324219 -23.539062 L 42.707031 -23.539062 C 37.082031 -23.539062 33.539062 -23.75 33.539062 -29.582031 L 33.539062 -38.121094 L 108.324219 -38.121094 L 108.324219 -80.828125 C 108.324219 -98.328125 96.242188 -99.574219 83.328125 -99.574219 L 33.746094 -99.574219 C 20.832031 -99.574219 8.75 -98.328125 8.75 -80.828125 Z M 33.539062 -69.996094 C 33.539062 -75.828125 37.082031 -76.035156 42.707031 -76.035156 L 74.371094 -76.035156 C 79.996094 -76.035156 83.535156 -75.828125 83.535156 -69.996094 L 83.535156 -61.664062 L 33.539062 -61.664062 Z M 33.539062 -69.996094 "/></g></g></g><g clip-path="url(#d879df7ad1)"><g fill="#ffffff" fill-opacity="1"><g transform="translate(362.684679, 127.079552)"><g><path d="M 34.582031 0 L 34.582031 -138.949219 L 9.789062 -138.949219 L 9.789062 0 Z M 34.582031 0 "/></g></g></g></g><g fill="#ffffff" fill-opacity="1"><g transform="translate(407.056725, 127.079552)"><g><path d="M 33.539062 -32.082031 C 33.539062 -37.914062 37.082031 -38.121094 42.707031 -38.121094 L 83.328125 -38.121094 L 83.328125 -23.539062 L 42.707031 -23.539062 C 37.082031 -23.539062 33.539062 -23.75 33.539062 -29.582031 Z M 108.324219 -80.828125 C 108.324219 -98.328125 96.242188 -99.574219 83.328125 -99.574219 L 8.75 -99.574219 L 8.75 -76.035156 L 74.160156 -76.035156 C 79.785156 -76.035156 83.328125 -75.828125 83.328125 -69.996094 L 83.328125 -61.664062 L 33.746094 -61.664062 C 20.832031 -61.664062 8.75 -60.414062 8.75 -42.914062 L 8.75 -18.75 C 8.75 -1.25 20.832031 0 33.746094 0 L 108.324219 0 Z M 108.324219 -80.828125 "/></g></g></g><g fill="#ffffff" fill-opacity="1"><g transform="translate(524.132427, 127.079552)"><g><path d="M 59.578125 -76.035156 L 59.578125 -99.574219 L 9.789062 -99.574219 L 9.789062 0 L 34.582031 0 L 34.582031 -76.035156 Z M 59.578125 -76.035156 "/></g></g></g><g clip-path="url(#e964cdcb9d)"><g fill="#ffffff" fill-opacity="1"><g transform="translate(588.503164, 127.079552)"><g><path d="M 34.582031 -115.199219 L 34.582031 -138.949219 L 9.789062 -138.949219 L 9.789062 -115.199219 Z M 34.582031 0 L 34.582031 -99.574219 L 9.789062 -99.574219 L 9.789062 0 Z M 34.582031 0 "/></g></g></g></g><g fill="#ffffff" fill-opacity="1"><g transform="translate(632.875209, 127.079552)"><g><path d="M 8.75 -56.871094 C 8.75 -39.371094 20.832031 -38.121094 33.746094 -38.121094 L 74.371094 -38.121094 C 79.996094 -38.121094 83.535156 -37.914062 83.535156 -32.082031 L 83.535156 -29.582031 C 83.535156 -23.75 79.996094 -23.539062 74.371094 -23.539062 L 8.75 -23.539062 L 8.75 0 L 83.328125 0 C 96.242188 0 108.324219 -1.25 108.324219 -18.75 L 108.324219 -42.914062 C 108.324219 -60.414062 96.035156 -61.664062 83.117188 -61.664062 L 42.707031 -61.664062 C 37.082031 -61.664062 33.539062 -61.871094 33.539062 -67.703125 L 33.539062 -69.996094 C 33.539062 -75.828125 37.082031 -76.035156 42.707031 -76.035156 L 108.324219 -76.035156 L 108.324219 -99.574219 L 33.746094 -99.574219 C 20.832031 -99.574219 8.75 -98.328125 8.75 -81.035156 Z M 8.75 -56.871094 "/></g></g></g></g></g></svg>